<svg width="734" height="640" viewBox="0 0 734 640" fill="none" xmlns="http://www.w3.org/2000/svg" xmlns:xlink="http://www.w3.org/1999/xlink">
<rect width="734" height="640" fill="url(#pattern0)"/>
<defs>
<pattern id="pattern0" patternContentUnits="objectBoundingBox" width="1" height="1">
<use xlink:href="#image0_1_86" transform="translate(-0.00408719) scale(0.0013624 0.0015625)"/>
</pattern>
<image id="image0_1_86" width="740" height="640" xlink:href="img/home.png"/>
</defs>
<path d="M222 532.92L445.846 541.229L516 527V549.539L446.555 570L222 558.575V532.92Z" fill="#3595F6" fill-opacity="0.75"/>
<path d="M223 534.273V507L445.579 510.6L516 507V528.818L445.983 543L223 534.273Z" fill="#3595F6" fill-opacity="0.75"/>
<path d="M223 510V480H446.286H516V507.6L447.297 516L223 510Z" fill="#3595F6" fill-opacity="0.75"/>
<path d="M223 485V456.254L447.363 452L516 459.704V485H447.059" fill="#3595F6" fill-opacity="0.75"/>
<path d="M223 458.471V427.882L446.791 424L516 436.941V462L446.286 454.118L223 458.471Z" fill="#3595F6" fill-opacity="0.75"/>
<path d="M222 431.632V403.494L443.757 391L515 414.363V440.063L443.757 431.632H222Z" fill="#3595F6" fill-opacity="0.75"/>
<path d="M222 405.724V379.862L444.961 363L515 392.586V414L444.459 391.552L222 405.724Z" fill="#3595F6" fill-opacity="0.75"/>
<path d="M222 379.853V354.548L445.262 334L515 371.047V392L442.753 362.949L222 379.853Z" fill="#3595F6" fill-opacity="0.75"/>
<path d="M223 359.416L222.699 326.189L446.463 301L516 349.871V372L446.463 338L223 359.416Z" fill="#3595F6" fill-opacity="0.75"/>
<path d="M222 330.126V305.021L446.024 275L516 321.747V350L445.219 305.753L222 330.126Z" fill="#3595F6" fill-opacity="0.75"/>
<path d="M220.298 308.481L221 279.418L444.059 246L515 306.051V326L444.059 279.418L220.298 308.481Z" fill="#3595F6" fill-opacity="0.75"/>
<path d="M222 284.506V254.824L444.72 219L515 284.506V306L445.828 251.446L222 284.506Z" fill="#3595F6" fill-opacity="0.75"/>
<path d="M222 254.692V229.418L444.763 186L514 262.073V283L444.763 221.5L222 254.692Z" fill="#3595F6" fill-opacity="0.75"/>
<path d="M223.204 228.946V200.5L444.763 157.5L515.204 239.378V262.368L444.763 190L223.204 228.946Z" fill="#3595F6" fill-opacity="0.75"/>
<path d="M223 203.676V178.444L443.759 130L514 212V238.5L443.056 158.966L223 203.676Z" fill="#3595F6" fill-opacity="0.75"/>
<path d="M224 180.339V154.904L444.555 102L516 195.905V219L446.06 131.199L224 180.339Z" fill="#3595F6" fill-opacity="0.75"/>
<path d="M224 159.577V127.085L449.814 67L515.984 173.5V198L445.493 105.767L224 159.577Z" fill="#3595F6" fill-opacity="0.75"/>
</svg>
